# xmcd
#
# Track frame offsets:
#	150
#	16048
#	38398
#	60899
#	77360
#	103426
#	131794
#	148967
#	158384
#	171185
#	197240
#	210310
#	231074
#	245248
#	266632
#	287318
#
# Disc length: 3990 seconds
#
# Revision: 1
# Processed by: cddbd v1.5.2PL0 Copyright (c) Steve Scherf et al.
# Submitted via: audiograbber 1.83.01
#
DISCID=d10f9410
DTITLE=Hot Club d' Allemangne - swing de flâneur
DYEAR=1900
DGENRE=Swing
TTITLE0=Swing de manouche
TTITLE1=Swing de flâneur
TTITLE2=For José
TTITLE3=Lulu Swing
TTITLE4=Algier
TTITLE5=Manoir de mes rêves
TTITLE6=Deux guitares
TTITLE7=Stompin' at Decca
TTITLE8=Valse romantique
TTITLE9=Romanie
TTITLE10=Dorado Swing
TTITLE11=Bossa mélancolique
TTITLE12=Never be alone
TTITLE13=Nuages
TTITLE14=Space Shuffle
TTITLE15=Tornado Swing
EXTD=
EXTT0=
EXTT1=
EXTT2=
EXTT3=
EXTT4=
EXTT5=
EXTT6=
EXTT7=
EXTT8=
EXTT9=
EXTT10=
EXTT11=
EXTT12=
EXTT13=
EXTT14=
EXTT15=
PLAYORDER=
